Coordinates
version=1
nRows=29
nColumns=24
inDegrees=yes

Units are S.I. units (second, meters, Newtons, ...)
Angles are in degrees.

endheader
time	pelvis_tilt	pelvis_list	pelvis_rotation	pelvis_tx	pelvis_ty	pelvis_tz	hip_flexion_r	hip_adduction_r	hip_rotation_r	knee_angle_r	ankle_angle_r	subtalar_angle_r	mtp_angle_r	hip_flexion_l	hip_adduction_l	hip_rotation_l	knee_angle_l	ankle_angle_l	subtalar_angle_l	mtp_angle_l	lumbar_extension	lumbar_bending	lumbar_rotation
      0.55800000	     -0.02790112	      6.61807385	      4.00008366	     -0.89099297	      0.99263841	      0.24671076	     24.51141117	     -5.39744692	     -8.13254782	     -1.96368490	      5.91824400	     -6.51164637	      9.35583585	    -19.09571609	      8.98293228	      8.97502371	     -3.57383998	      9.36030372	    -13.59988082	      3.77354174	     -4.89823352	     -8.08183930	     -3.08971303
      0.56216667	      0.00598847	      6.57029830	      4.07844290	     -0.88493811	      0.99214571	      0.24671976	     24.53837939	     -5.36032943	     -7.98664127	     -2.52380605	      6.05537373	     -6.60288731	      9.36047340	    -19.23822043	      8.89047739	      9.03062789	     -4.09258160	      9.38211436	    -13.57100296	      3.79316753	     -4.89501870	     -7.96119391	     -3.08951455
      0.56633333	     -0.03439158	      6.52659593	      4.16146949	     -0.87883254	      0.99158662	      0.24677877	     24.62667939	     -5.32143413	     -7.74871960	     -3.09281475	      6.10002700	     -6.79184686	      9.38323954	    -19.24068272	      8.80109072	      8.92156497	     -4.72848646	      9.48335483	    -13.18405656	      3.89546919	     -4.81676909	     -7.86770330	     -3.23218601
      0.57050000	      0.00488568	      6.46193745	      4.23826830	     -0.87268358	      0.99117668	      0.24684361	     24.59679306	     -5.25096968	     -7.50364590	     -3.63815208	      6.07664002	     -7.06413497	      9.42269539	    -19.32207444	      8.68496079	      8.83238166	     -5.37477532	      9.53919879	    -12.90122726	      4.03741328	     -4.81957963	     -7.73406024	     -3.34319173
      0.57466667	     -0.00300185	      6.39425362	      4.31937250	     -0.86646029	      0.99074697	      0.24690634	     24.60651724	     -5.17776272	     -7.26167545	     -4.20207973	      5.99589857	     -7.33161340	      9.47448315	    -19.33970379	      8.57055665	      8.74704781	     -6.04833844	      9.55391771	    -12.64572621	      4.20444861	     -4.75437977	     -7.60098514	     -3.44559225
      0.57883333	      0.01830818	      6.31797346	      4.39429774	     -0.86019406	      0.99039218	      0.24699065	     24.56758589	     -5.08782006	     -7.02039505	     -4.76093768	      5.86053232	     -7.61995042	      9.54494015	    -19.35707135	      8.44506041	      8.61835131	     -6.78132760	      9.56109141	    -12.33271705	      4.41180556	     -4.71924714	     -7.45482387	     -3.55019369
      0.58300000	      0.02314686	      6.25073301	      4.46430975	     -0.85391109	      0.99004927	      0.24708317	     24.54668931	     -5.00445177	     -6.77645033	     -5.34510321	      5.71869476	     -7.88962913	      9.60749189	    -19.33591931	      8.33662537	      8.51963882	     -7.55569799	      9.55181632	    -12.09131975	      4.58813404	     -4.66509491	     -7.32070721	     -3.62931855
      0.58716667	      0.02134309	      6.15474571	      4.52626770	     -0.84750927	      0.98974913	      0.24720257	     24.50003263	     -4.88339526	     -6.55285000	     -5.88282171	      5.42733723	     -8.18837536	      9.69465382	    -19.27639943	      8.19226210	      8.27955644	     -8.37704441	      9.48740768	    -11.68582208	      4.83374062	     -4.57554055	     -7.15195593	     -3.72230831
      0.59133333	      0.03605569	      6.06646959	      4.58283365	     -0.84113309	      0.98949811	      0.24734126	     24.43963161	     -4.76674966	     -6.33717936	     -6.44247279	      5.14572556	     -8.47252061	      9.80305197	    -19.20390339	      8.05637634	      8.04425432	     -9.25850075	      9.41214837	    -11.29408821	      5.13914109	     -4.52049420	     -6.99625017	     -3.78159832
      0.59550000	      0.04970141	      5.96848489	      4.63247180	     -0.83467613	      0.98928909	      0.24748778	     24.37749806	     -4.64279123	     -6.20015790	     -7.01285799	      4.84203554	     -8.66804467	     11.80583819	    -19.10129343	      7.90579540	      7.73621943	    -10.17955606	      9.20407085	    -10.91849359	     10.91936556	     -4.44453008	     -6.82631348	     -3.76641906
      0.59966667	      0.02799484	      5.85842752	      4.67606591	     -0.82816829	      0.98908764	      0.24764816	     24.32237793	     -4.49839130	     -5.99789259	     -7.52850337	      4.41617340	     -8.96906381	     11.79395410	    -18.95041039	      7.75498604	      7.49212080	    -11.12632245	      9.01225822	    -10.61184486	     10.97400389	     -4.31706849	     -6.63703600	     -3.87467339
      0.60383333	      0.03501189	      5.75329939	      4.71044877	     -0.82168146	      0.98894965	      0.24785942	     24.24171518	     -4.35366950	     -5.81078317	     -8.06397532	      4.07596392	     -9.25715029	     11.79923005	    -18.75888010	      7.59523054	      7.10390255	    -12.20253899	      8.86145957	    -10.08228350	     11.11342859	     -4.22890601	     -6.47016768	     -3.88942612
      0.60800000	      0.03718185	      5.63794758	      4.72994301	     -0.81516622	      0.98884416	      0.24808794	     24.16841813	     -4.19745507	     -5.65431754	     -8.60725818	      3.68146462	     -9.49888075	     11.81886505	    -18.54564807	      7.42548553	      6.69743806	    -13.29849202	      8.62385522	     -9.58182101	     11.32427528	     -4.12959950	     -6.28153038	     -3.89888912
      0.61216667	      0.02653797	      5.51607851	      4.73730673	     -0.80861472	      0.98875998	      0.24834598	     24.10470613	     -4.03266145	     -5.51334797	     -9.14557812	      3.28322581	     -9.70862741	     11.84771495	    -18.28506051	      7.24767032	      6.25671286	    -14.45027010	      8.33262941	     -9.07277903	     11.58483335	     -4.00493430	     -6.09192331	     -3.89077121
      0.61633333	      0.01329039	      5.39523323	      4.73311788	     -0.80207763	      0.98870697	      0.24863687	     24.05350348	     -3.86808395	     -5.38768291	     -9.70670051	      2.89808309	     -9.90907654	     11.88484600	    -17.98126336	      7.06574548	      5.77648862	    -15.66457524	      8.00408493	     -8.52918279	     11.92346374	     -3.88025448	     -5.90198986	     -3.86873347
      0.62050000	      0.04542092	      5.25560315	      4.70020997	     -0.79551967	      0.98874029	      0.24897945	     23.95694274	     -3.67412905	     -5.27430704	    -10.27323170	      2.50897514	    -10.12614888	     12.59450713	    -17.70640282	      6.85230510	      5.23209296	    -16.88662053	      7.50488402	     -8.06094017	     18.79332096	     -3.80560350	     -5.67837699	     -3.83684234
      0.62466667	      0.01618308	      5.12968686	      4.67632035	     -0.78898221	      0.98873533	      0.24931611	     23.93218220	     -3.50881474	     -5.19800796	    -10.85900193	      2.17361905	    -10.19859199	     12.58631438	    -17.31485515	      6.65611571	      4.70917107	    -18.20966200	      7.04106474	     -7.54656764	     18.86121929	     -3.65224326	     -5.49439123	     -3.78128464
      0.62883333	      0.02021773	      4.99002951	      4.62667283	     -0.78246770	      0.98879796	      0.24970896	     23.88770879	     -3.31952103	     -5.11900891	    -11.47639365	      1.85550537	    -10.33893095	     12.57666695	    -16.93175751	      6.43432340	      4.14121144	    -19.56737595	      6.54452333	     -6.96961039	     19.01141642	     -3.55188136	     -5.27535208	     -3.71604787
      0.63300000	      0.01759671	      4.85080219	      4.57082246	     -0.77597334	      0.98888267	      0.25012753	     23.84835804	     -3.13183761	     -5.04725682	    -12.09056975	      1.58034100	    -10.43448619	     12.56431353	    -16.49843703	      6.20473218	      3.56150087	    -20.98968936	      5.97551149	     -6.41904317	     19.23629034	     -3.44099486	     -5.06475259	     -3.64024815
      0.63716667	      0.01928217	      4.70630407	      4.50111721	     -0.76951060	      0.98899979	      0.25058592	     23.81253294	     -2.93653021	     -4.98292157	    -12.72156815	      1.34713949	    -10.49501964	     12.54765557	    -16.03809863	      5.95852456	      2.95974189	    -22.45198150	      5.33513329	     -5.88008955	     19.52038941	     -3.33288614	     -4.85254922	     -3.55265521
      0.64133333	      0.01549958	      4.56453479	      4.42179955	     -0.76305852	      0.98915941	      0.25107903	     23.76779100	     -2.74144363	     -4.90720460	    -13.32321356	      1.16349927	    -10.49904979	     12.52965928	    -15.54348847	      5.70633366	      2.35886225	    -23.94194820	      4.60043750	     -5.39820431	     19.79449320	     -3.21249586	     -4.66065884	     -3.46616776
      0.64550000	      0.03267427	      4.40230157	      4.33625109	     -0.75666267	      0.98936062	      0.25159530	     23.71768049	     -2.52378113	     -4.85390847	    -13.96218271	      1.00038816	    -10.57295125	     11.94510614	    -15.04264556	      5.41742376	      1.75933955	    -25.45558786	      3.77020449	     -4.99906475	     26.69496044	     -3.13739908	     -4.41114933	     -3.36122756
      0.64966667	      0.04382767	      4.26829351	      4.23913438	     -0.75032848	      0.98957492	      0.25213897	     23.67766351	     -2.33702651	     -4.80815758	    -14.60630861	      0.92011058	    -10.51160295	     11.94562078	    -14.50435493	      5.15759099	      1.19207607	    -27.02102885	      2.93163506	     -4.58491225	     26.72792668	     -3.05155733	     -4.22811835	     -3.27443066
      0.65383333	      0.04697120	      4.12565771	      4.14179986	     -0.74404162	      0.98980523	      0.25270218	     23.64553238	     -2.14130460	     -4.76604622	    -15.25044225	      0.86282893	    -10.47887929	     11.93636545	    -13.92652891	      4.87757119	      0.63884636	    -28.62077695	      2.08175152	     -4.17659443	     26.79524693	     -2.96720984	     -4.02369264	     -3.16842504
      0.65800000	      0.06490356	      3.97508239	      4.04000653	     -0.73781356	      0.99006969	      0.25328418	     23.59507533	     -1.93562932	     -4.73320918	    -15.88779697	      0.83617533	    -10.45535780	     11.91589173	    -13.34308230	      4.58284711	      0.12162367	    -30.24429026	      1.20772133	     -3.81551851	     26.89207157	     -2.90746677	     -3.80176056	     -3.05859393
      0.66216667	      0.07411772	      3.83034254	      3.93897293	     -0.73162767	      0.99036899	      0.25389395	     23.52762817	     -1.73272103	     -4.68799829	    -16.47095142	      0.85262432	    -10.38999504	     11.89244004	    -12.72243494	      4.28436558	     -0.37957813	    -31.88809336	      0.27380067	     -3.53210637	     26.97985757	     -2.83454646	     -3.61216215	     -2.96501910
      0.66633333	      0.09115192	      3.68605376	      3.83892345	     -0.72553512	      0.99067735	      0.25450223	     23.46173128	     -1.53275613	     -4.66193025	    -17.07392568	      0.89710882	    -10.33853028	     11.85565439	    -12.08804238	      3.98384046	     -0.83288086	    -33.55264430	     -0.62462242	     -3.26085535	     27.08240530	     -2.79060188	     -3.40269815	     -2.86064119
      0.67050000	      0.11191107	      3.54026811	      3.74251124	     -0.71948878	      0.99102895	      0.25512426	     23.36613542	     -1.32873333	     -4.63488007	    -17.62318097	      0.97268318	    -10.27231757	     11.81258575	    -11.43970325	      3.67585823	     -1.25172747	    -35.22323354	     -1.54735018	     -3.07124742	     27.16849376	     -2.75106403	     -3.20247036	     -2.76735551
      0.67466667	      0.11967295	      3.39757913	      3.65307427	     -0.71350290	      0.99139189	      0.25575291	     23.26818716	     -1.12806851	     -4.61245451	    -18.13965057	      1.06800988	    -10.20537609	     11.76552780	    -10.76006879	      3.36981829	     -1.62499913	    -36.89783994	     -2.45500788	     -2.94315790	     27.22945017	     -2.70265139	     -3.01335855	     -2.68332302
